<?xml version="1.0" encoding="UTF-8" standalone="no"?><!-- Generator: Gravit.io --><svg xmlns="http://www.w3.org/2000/svg" xmlns:xlink="http://www.w3.org/1999/xlink" style="isolation:isolate" viewBox="-1233.849 245.855 252.3 86.3" width="252.3pt" height="86.3pt"><g><g><g><path d=" M -1159.575 268.543 L -1159.575 263.839 L -1174.202 263.839 L -1174.202 268.543 L -1169.657 268.543 L -1169.657 285.185 L -1164.12 285.185 L -1164.12 268.543 L -1159.575 268.543 L -1159.575 268.543 Z " fill-rule="evenodd" fill="rgb(255,255,255)"/><path d=" M -1158.231 285.185 L -1153.109 285.185 L -1153.109 277.504 C -1153.109 276.352 -1152.693 275.584 -1152.245 275.168 C -1151.67 274.656 -1150.933 274.56 -1150.389 274.56 C -1149.877 274.56 -1149.237 274.624 -1148.757 275.168 C -1148.181 275.808 -1148.117 276.896 -1148.117 277.952 L -1148.117 285.185 L -1142.995 285.185 L -1142.995 276.096 C -1142.995 274.72 -1143.059 273.376 -1144.339 272.096 C -1145.204 271.231 -1146.548 270.56 -1148.564 270.56 C -1149.46 270.56 -1150.516 270.688 -1151.509 271.264 C -1152.116 271.616 -1152.725 272.192 -1153.109 272.672 L -1153.109 261.855 L -1158.231 261.855 L -1158.231 285.185 Z " fill-rule="evenodd" fill="rgb(255,255,255)"/><path d=" M -1124.977 278.432 C -1124.977 276.832 -1125.233 274.335 -1127.25 272.416 C -1128.946 270.815 -1131.091 270.464 -1132.755 270.464 C -1135.571 270.464 -1137.428 271.392 -1138.612 272.544 C -1139.86 273.76 -1140.756 275.68 -1140.756 278.08 C -1140.756 280.8 -1139.572 282.56 -1138.643 283.488 C -1136.883 285.249 -1134.611 285.665 -1132.722 285.665 C -1129.618 285.665 -1127.954 284.704 -1126.897 283.681 C -1126.067 282.873 -1125.469 281.855 -1125.169 280.736 L -1130.064 280.736 C -1130.266 281.134 -1130.577 281.467 -1130.96 281.696 C -1131.599 282.048 -1132.495 282.081 -1132.624 282.081 C -1133.776 282.081 -1134.416 281.696 -1134.736 281.376 C -1135.344 280.769 -1135.632 279.744 -1135.632 278.976 L -1124.974 278.976 L -1124.977 278.432 Z  M -1135.475 276.032 C -1135.379 275.454 -1135.112 274.919 -1134.708 274.496 C -1134.161 273.949 -1133.491 273.728 -1132.627 273.728 C -1132.115 273.728 -1131.187 273.824 -1130.515 274.496 C -1130.131 274.88 -1129.811 275.488 -1129.682 276.032 L -1135.475 276.032 Z " fill-rule="evenodd" fill="rgb(255,255,255)"/><path d=" M -1061.573 290.473 L -1061.573 283.416 L -1083.514 283.416 L -1083.514 290.473 L -1076.696 290.473 L -1076.696 315.434 L -1068.39 315.434 L -1068.39 290.473 L -1061.573 290.473 L -1061.573 290.473 Z " fill-rule="evenodd" fill="rgb(255,255,255)"/><path d=" M -1039.241 305.306 C -1039.241 302.906 -1039.625 299.16 -1042.65 296.281 C -1045.194 293.881 -1048.411 293.353 -1050.908 293.353 C -1055.132 293.353 -1057.917 294.745 -1059.693 296.473 C -1061.565 298.297 -1062.909 301.178 -1062.909 304.777 C -1062.909 308.858 -1061.134 311.498 -1059.741 312.89 C -1057.101 315.53 -1053.692 316.155 -1050.859 316.155 C -1046.202 316.155 -1043.706 314.714 -1042.122 313.178 C -1040.537 311.642 -1039.868 309.962 -1039.527 308.762 L -1046.875 308.762 C -1047.179 309.358 -1047.645 309.857 -1048.219 310.202 C -1049.179 310.73 -1050.523 310.778 -1050.715 310.778 C -1052.444 310.778 -1053.404 310.202 -1053.884 309.722 C -1054.797 308.81 -1055.228 307.274 -1055.228 306.121 L -1039.241 306.121 L -1039.241 305.306 Z  M -1054.988 301.706 C -1054.844 300.745 -1054.364 299.977 -1053.836 299.401 C -1053.017 298.585 -1052.012 298.249 -1050.715 298.249 C -1049.948 298.249 -1048.555 298.393 -1047.546 299.401 C -1046.971 299.977 -1046.491 300.889 -1046.299 301.706 L -1054.988 301.706 Z " fill-rule="evenodd" fill="rgb(255,255,255)"/><path d=" M -1038.945 315.434 L -1028.768 315.434 L -1023.294 309.05 L -1017.821 315.434 L -1007.644 315.434 L -1018.397 303.769 L -1009.516 293.977 L -1019.454 293.977 L -1023.246 298.393 L -1026.943 293.977 L -1036.929 293.977 L -1028.239 303.769 L -1038.945 315.434 L -1038.945 315.434 Z " fill-rule="evenodd" fill="rgb(255,255,255)"/><path d=" M -993.137 300.265 L -993.137 293.977 L -997.505 293.977 L -997.505 286.921 L -1005.187 286.921 L -1005.187 293.977 L -1007.635 293.977 L -1007.635 300.265 L -1005.187 300.265 L -1005.187 315.434 L -997.505 315.434 L -997.505 300.265 L -993.137 300.265 L -993.137 300.265 Z " fill-rule="evenodd" fill="rgb(255,255,255)"/><path d=" M -1196.71 303.769 L -1189.889 303.769 C -1190.177 305.545 -1191.09 306.698 -1191.858 307.321 C -1193.346 308.569 -1195.026 308.81 -1196.467 308.81 C -1198.915 308.81 -1200.788 307.993 -1202.324 306.361 C -1203.812 304.777 -1204.869 302.377 -1204.869 299.448 C -1204.869 296.952 -1203.956 293.977 -1202.084 292.104 C -1200.596 290.616 -1198.579 289.896 -1196.611 289.896 C -1195.026 289.896 -1193.537 290.328 -1192.146 291.48 C -1191.116 292.338 -1190.322 293.445 -1189.841 294.697 L -1181.919 291.432 C -1183.071 288.936 -1185.136 286.392 -1187.633 284.855 C -1190.081 283.368 -1193.301 282.696 -1196.274 282.696 C -1201.939 282.696 -1206.068 284.76 -1208.708 287.4 C -1211.493 290.136 -1213.509 294.313 -1213.509 299.401 C -1213.509 304.681 -1211.301 308.569 -1208.901 310.969 C -1206.306 313.61 -1202.371 315.722 -1196.608 315.722 C -1192.527 315.722 -1188.686 314.81 -1185.326 311.692 C -1181.486 308.141 -1180.189 303.627 -1180.189 297.291 L -1196.71 297.291 L -1196.71 303.769 Z " fill-rule="evenodd" fill="rgb(255,255,255)"/><path d=" M -1155.031 296.809 C -1156.806 295.129 -1159.879 293.258 -1164.632 293.258 C -1169.289 293.258 -1172.41 295.082 -1174.186 296.809 C -1175.771 298.346 -1177.499 300.838 -1177.499 304.682 C -1177.499 307.562 -1176.538 310.298 -1174.186 312.604 C -1171.209 315.532 -1167.753 316.155 -1164.632 316.155 C -1161.176 316.155 -1157.863 315.387 -1155.031 312.604 C -1152.678 310.3 -1151.718 307.564 -1151.718 304.682 C -1151.718 300.841 -1153.446 298.346 -1155.031 296.809 Z  M -1161.176 308.09 C -1162.088 309.002 -1163.336 309.531 -1164.584 309.531 C -1165.882 309.526 -1167.124 309.008 -1168.041 308.09 C -1168.905 307.226 -1169.529 305.978 -1169.529 304.683 C -1169.529 303.434 -1169.001 302.087 -1168.041 301.178 C -1167.177 300.362 -1165.833 299.786 -1164.584 299.786 C -1163.384 299.786 -1162.04 300.362 -1161.176 301.178 C -1160.219 302.139 -1159.687 303.53 -1159.687 304.683 C -1159.698 305.974 -1160.236 307.205 -1161.176 308.09 L -1161.176 308.09 Z " fill-rule="evenodd" fill="rgb(255,255,255)"/><path d=" M -1126.697 296.809 C -1128.473 295.129 -1131.546 293.258 -1136.299 293.258 C -1140.956 293.258 -1144.077 295.082 -1145.853 296.809 C -1147.437 298.346 -1149.165 300.838 -1149.165 304.682 C -1149.165 307.562 -1148.205 310.298 -1145.853 312.604 C -1142.877 315.532 -1139.42 316.155 -1136.299 316.155 C -1132.842 316.155 -1129.53 315.387 -1126.697 312.604 C -1124.345 310.3 -1123.385 307.564 -1123.385 304.682 C -1123.385 300.841 -1125.113 298.346 -1126.697 296.809 Z  M -1132.844 308.09 C -1133.756 309.001 -1135.005 309.53 -1136.252 309.53 C -1137.549 309.525 -1138.791 309.008 -1139.708 308.09 C -1140.572 307.226 -1141.196 305.978 -1141.196 304.683 C -1141.196 303.434 -1140.668 302.087 -1139.708 301.178 C -1138.844 300.362 -1137.499 299.786 -1136.251 299.786 C -1135.051 299.786 -1133.707 300.362 -1132.842 301.178 C -1131.882 302.139 -1131.354 303.53 -1131.354 304.683 C -1131.365 305.974 -1131.902 307.205 -1132.842 308.09 L -1132.844 308.09 Z " fill-rule="evenodd" fill="rgb(255,255,255)"/><path d=" M -1103.357 280.44 L -1103.357 296.041 C -1104.75 294.553 -1106.813 293.257 -1109.743 293.257 C -1112.383 293.257 -1115.215 294.121 -1117.328 296.137 C -1119.296 298.01 -1120.832 300.986 -1120.832 304.633 C -1120.832 308.042 -1119.535 311.066 -1117.376 313.178 C -1115.359 315.147 -1112.911 316.155 -1109.838 316.155 C -1108.35 316.155 -1105.518 315.866 -1103.357 313.081 L -1103.357 315.433 L -1095.675 315.433 L -1095.675 280.44 L -1103.357 280.44 Z  M -1104.75 308.33 C -1105.569 309.05 -1106.813 309.628 -1108.062 309.628 C -1109.166 309.628 -1110.415 309.244 -1111.47 308.188 C -1112.479 307.179 -1112.959 305.934 -1112.959 304.828 C -1112.959 303.388 -1112.335 302.044 -1111.47 301.18 C -1110.798 300.508 -1109.695 299.787 -1108.062 299.787 C -1106.622 299.787 -1105.422 300.316 -1104.558 301.228 C -1103.789 302.044 -1103.117 303.481 -1103.117 304.684 C -1103.117 305.977 -1103.741 307.418 -1104.75 308.33 L -1104.75 308.33 Z " fill-rule="evenodd" fill="rgb(255,255,255)"/><path d=" M -1196.327 272.818 C -1199.97 269.353 -1208.353 272.256 -1215.05 279.3 C -1221.747 286.344 -1224.223 294.863 -1220.58 298.324 C -1219.965 298.9 -1219.218 299.315 -1218.405 299.532 C -1219.795 295.397 -1217.145 288.495 -1211.559 282.617 C -1205.972 276.739 -1199.213 273.749 -1195.011 274.93 C -1195.269 274.128 -1195.721 273.403 -1196.327 272.818 L -1196.327 272.818 Z " fill="rgb(255,255,255)"/><g opacity="0.5"><path d=" M -1195.011 274.93 C -1199.213 273.749 -1205.972 276.743 -1211.559 282.617 C -1217.145 288.49 -1219.795 295.397 -1218.405 299.535 C -1214.202 300.715 -1207.441 297.721 -1201.856 291.845 C -1196.271 285.97 -1193.62 279.069 -1195.011 274.93 Z  M -1204.962 288.892 C -1209.49 293.654 -1214.636 296.11 -1216.456 294.378 C -1218.276 292.646 -1216.083 287.383 -1211.556 282.621 C -1207.028 277.859 -1201.882 275.403 -1200.06 277.134 C -1198.239 278.865 -1200.434 284.13 -1204.962 288.892 Z " fill="rgb(255,255,255)"/></g></g></g><rect x="-1233.849" y="245.855" width="252.3" height="86.3" transform="matrix(1,0,0,1,0,0)" fill="none"/></g></svg>