<svg xmlns="http://www.w3.org/2000/svg" xmlns:xlink="http://www.w3.org/1999/xlink" viewBox="0 0 1125.05 2436"><defs><style>.cls-1{isolation:isolate;}.cls-2{fill:#440db7;}.cls-10,.cls-11,.cls-12,.cls-13,.cls-14,.cls-15,.cls-16,.cls-17,.cls-3,.cls-4,.cls-5,.cls-6,.cls-7,.cls-8,.cls-9{fill-rule:evenodd;opacity:0.5;}.cls-11,.cls-12,.cls-13,.cls-14,.cls-15,.cls-16,.cls-3,.cls-4,.cls-5,.cls-6,.cls-7,.cls-9{mix-blend-mode:multiply;}.cls-3{fill:url(#Degradado_sin_nombre_18);}.cls-4{fill:url(#Degradado_sin_nombre_19);}.cls-5{fill:url(#Degradado_sin_nombre_17);}.cls-6{fill:url(#Degradado_sin_nombre_17-2);}.cls-7{fill:url(#Degradado_sin_nombre_15);}.cls-10,.cls-17,.cls-8{mix-blend-mode:overlay;}.cls-8{fill:url(#Degradado_sin_nombre_14);}.cls-9{fill:url(#Degradado_sin_nombre_15-2);}.cls-10{fill:url(#Degradado_sin_nombre_14-2);}.cls-11{fill:url(#Degradado_sin_nombre_18-2);}.cls-12{fill:url(#Degradado_sin_nombre_17-3);}.cls-13{fill:url(#Degradado_sin_nombre_18-3);}.cls-14{fill:url(#Degradado_sin_nombre_19-2);}.cls-15{fill:url(#Degradado_sin_nombre_17-4);}.cls-16{fill:url(#Degradado_sin_nombre_15-3);}.cls-17{fill:url(#Degradado_sin_nombre_14-3);}</style><linearGradient id="Degradado_sin_nombre_18" x1="1076.68" y1="2201.29" x2="1076.68" y2="1504.78" gradientTransform="matrix(-1, 0, 0, 1, 1660.24, 0)" gradientUnits="userSpaceOnUse"><stop offset="0.01" stop-color="#fff"/><stop offset="0.77"/></linearGradient><linearGradient id="Degradado_sin_nombre_19" x1="171.91" y1="1899.59" x2="171.91" y2="1595.98" gradientUnits="userSpaceOnUse"><stop offset="0.01" stop-color="#fff"/><stop offset="0.8"/></linearGradient><linearGradient id="Degradado_sin_nombre_17" x1="29.92" y1="2242.22" x2="29.92" y2="2044.25" gradientUnits="userSpaceOnUse"><stop offset="0.01" stop-color="#fff"/><stop offset="0.77"/></linearGradient><linearGradient id="Degradado_sin_nombre_17-2" x1="1298.69" y1="2319.21" x2="1298.69" y2="2121.24" gradientTransform="matrix(-1, 0, 0, 1, 1955.37, 0)" xlink:href="#Degradado_sin_nombre_17"/><linearGradient id="Degradado_sin_nombre_15" x1="325.54" y1="2436" x2="325.54" y2="1700.06" gradientUnits="userSpaceOnUse"><stop offset="0.35" stop-color="#fff"/><stop offset="0.88"/></linearGradient><linearGradient id="Degradado_sin_nombre_14" x1="367.38" y1="2436" x2="367.38" y2="2156.06" gradientUnits="userSpaceOnUse"><stop offset="0"/><stop offset="0.55" stop-color="#fff"/></linearGradient><linearGradient id="Degradado_sin_nombre_15-2" x1="104.4" y1="1121.31" x2="104.4" y2="424.8" xlink:href="#Degradado_sin_nombre_15"/><linearGradient id="Degradado_sin_nombre_14-2" x1="42.14" y1="932.77" x2="42.14" y2="652.83" xlink:href="#Degradado_sin_nombre_14"/><linearGradient id="Degradado_sin_nombre_18-2" x1="1399.77" y1="696.51" x2="1399.77" y2="0" xlink:href="#Degradado_sin_nombre_18"/><linearGradient id="Degradado_sin_nombre_17-3" x1="1621.77" y1="814.43" x2="1621.77" y2="616.46" gradientTransform="matrix(-1, 0, 0, 1, 1955.37, 0)" xlink:href="#Degradado_sin_nombre_17"/><linearGradient id="Degradado_sin_nombre_18-3" x1="492.62" y1="1585.42" x2="492.62" y2="888.91" gradientTransform="translate(166.21)" xlink:href="#Degradado_sin_nombre_18"/><linearGradient id="Degradado_sin_nombre_19-2" x1="755.97" y1="1283.72" x2="755.97" y2="980.11" gradientTransform="matrix(-1, 0, 0, 1, 1826.45, 0)" xlink:href="#Degradado_sin_nombre_19"/><linearGradient id="Degradado_sin_nombre_17-4" x1="714.62" y1="1703.34" x2="714.62" y2="1505.37" gradientTransform="translate(-128.92)" xlink:href="#Degradado_sin_nombre_17"/><linearGradient id="Degradado_sin_nombre_15-3" x1="909.61" y1="2014.58" x2="909.61" y2="1084.2" gradientTransform="matrix(-1, 0, 0, 1, 1826.45, 0)" xlink:href="#Degradado_sin_nombre_15"/><linearGradient id="Degradado_sin_nombre_14-3" x1="1005.45" y1="1689.36" x2="1005.45" y2="1409.42" gradientTransform="translate(-46.77)" xlink:href="#Degradado_sin_nombre_14"/></defs><g class="cls-1"><g id="Capa_2" data-name="Capa 2"><g id="Capa_1-2" data-name="Capa 1"><rect class="cls-2" width="1125" height="2436"/><path class="cls-3" d="M479.47,2201.29c116.19,0,208.2-133.79,208.2-239.48,0-192.33-103-203.76-208.2-457Z"/><path class="cls-4" d="M217.29,1899.59c-50.65,0-90.76-58.32-90.76-104.39,0-83.84,44.9-88.82,90.76-199.22Z"/><path class="cls-5" d="M59.51,2242.22c-33,0-59.18-38-59.18-68.07,0-54.67,29.28-57.92,59.18-129.9Z"/><path class="cls-6" d="M627.09,2319.21c33,0,59.18-38,59.18-68.07,0-54.67-29.28-57.91-59.18-129.9Z"/><path class="cls-7" d="M325.54,1933.93V1700.06c-105.19,253.28-208.2,264.7-208.2,457,0,105.68,92,239.47,208.2,239.47V2436h203.1a211.47,211.47,0,0,0,5.1-45C533.74,2198.63,430.73,2187.21,325.54,1933.93Z"/><path class="cls-8" d="M325.54,2436c46.7,0,83.68-53.77,83.68-96.25,0-77.3-41.4-81.9-83.68-183.69Z"/><path class="cls-9" d="M.3,1121.31c116.19,0,208.2-133.79,208.2-239.48,0-192.34-103-203.76-208.2-457Z"/><path class="cls-10" d="M.3,932.77C47,932.77,84,879,84,836.52c0-77.3-41.4-81.89-83.68-183.69Z"/><path class="cls-11" d="M156.38,696.51c116.19,0,208.2-133.79,208.2-239.48,0-192.33-103-203.75-208.2-457Z"/><path class="cls-12" d="M304,814.43c33,0,59.17-38,59.17-68.07,0-54.66-29.27-57.91-59.17-129.9Z"/><path class="cls-13" d="M762.92,1585.42c-116.19,0-208.2-133.79-208.2-239.47,0-192.34,103-203.76,208.2-457Z"/><path class="cls-14" d="M1025.1,1283.72c50.65,0,90.76-58.32,90.76-104.39,0-83.84-44.91-88.81-90.76-199.22Z"/><path class="cls-15" d="M615.29,1703.34c-33,0-59.17-38-59.17-68.07,0-54.66,29.27-57.91,59.17-129.9Z"/><path class="cls-16" d="M916.85,1318.07V1084.2c105.19,253.27,208.2,264.69,208.2,457,0,105.69-92,239.48-208.2,239.48v233.87c-116.2,0-208.21-133.79-208.21-239.48C708.64,1582.77,811.65,1571.34,916.85,1318.07Z"/><path class="cls-17" d="M916.85,1689.36c46.7,0,83.68-53.77,83.68-96.25,0-77.31-41.41-81.9-83.68-183.69Z"/></g></g></g></svg>