<svg xmlns="http://www.w3.org/2000/svg" xmlns:xlink="http://www.w3.org/1999/xlink" viewBox="0 0 1355.66 433.84"><defs><style>.cls-1{isolation:isolate;}.cls-2{fill:#440db7;}.cls-2,.cls-3,.cls-4,.cls-5,.cls-6{fill-rule:evenodd;}.cls-3{opacity:0.5;fill:url(#Degradado_sin_nombre_36);}.cls-3,.cls-4,.cls-5,.cls-6{mix-blend-mode:lighten;}.cls-4{fill:url(#Degradado_sin_nombre_32);}.cls-5{opacity:0.75;fill:url(#Degradado_sin_nombre_23);}.cls-6{fill:url(#Degradado_sin_nombre_38);}.cls-7{fill:#fff;}</style><linearGradient id="Degradado_sin_nombre_36" x1="738.51" y1="285.24" x2="851.13" y2="1.81" gradientUnits="userSpaceOnUse"><stop offset="0" stop-color="#fff"/><stop offset="0.08" stop-color="#f4f4f4"/><stop offset="0.22" stop-color="#d5d5d5"/><stop offset="0.41" stop-color="#a3a3a3"/><stop offset="0.64" stop-color="#5f5f5f"/><stop offset="0.91" stop-color="#080808"/><stop offset="0.93"/></linearGradient><linearGradient id="Degradado_sin_nombre_32" x1="260.35" y1="515.16" x2="257.28" y2="112.38" gradientUnits="userSpaceOnUse"><stop offset="0.39" stop-color="#fff"/><stop offset="0.45" stop-color="#eee"/><stop offset="0.57" stop-color="#c3c3c3"/><stop offset="0.74" stop-color="#7d7d7d"/><stop offset="0.94" stop-color="#1d1d1d"/><stop offset="1"/></linearGradient><linearGradient id="Degradado_sin_nombre_23" x1="335.67" y1="201.23" x2="795.1" y2="201.23" gradientUnits="userSpaceOnUse"><stop offset="0"/><stop offset="0.13" stop-color="#363636"/><stop offset="0.32" stop-color="#7c7c7c"/><stop offset="0.49" stop-color="#b5b5b5"/><stop offset="0.64" stop-color="#ddd"/><stop offset="0.76" stop-color="#f6f6f6"/><stop offset="0.83" stop-color="#fff"/></linearGradient><linearGradient id="Degradado_sin_nombre_38" x1="1067.38" y1="541.45" x2="1032.66" y2="-15.51" gradientUnits="userSpaceOnUse"><stop offset="0.29" stop-color="#fff"/><stop offset="0.42" stop-color="#fcfcfc"/><stop offset="0.52" stop-color="#f3f3f3"/><stop offset="0.6" stop-color="#e3e3e3"/><stop offset="0.68" stop-color="#cdcdcd"/><stop offset="0.75" stop-color="#b0b0b0"/><stop offset="0.81" stop-color="#8d8d8d"/><stop offset="0.88" stop-color="#636363"/><stop offset="0.94" stop-color="#343434"/><stop offset="1"/></linearGradient></defs><g class="cls-1"><g id="Capa_2" data-name="Capa 2"><g id="Capa_2-2" data-name="Capa 2"><path class="cls-2" d="M1355.6,227.43c0-.22,0-.44,0-.66-.25-115.83-94.35-209.53-210.18-209.28a209.28,209.28,0,0,0-162.3,77.45,105.31,105.31,0,0,0-12.88-.78,106.39,106.39,0,0,0-11.5.62,153.13,153.13,0,0,0-283.15,0,106.91,106.91,0,0,0-30.87,1.15A195.92,195.92,0,0,0,335.67,148.3h0a153.15,153.15,0,0,0-218.32,74.17A105.83,105.83,0,1,0,105,433.5c.28,0-.28-73.15,0-73.15H1230v73.48h125.66V227.43Zm-837.81,103a103,103,0,0,1-.82,10.75C517.42,337.63,517.69,334,517.79,330.41Zm-36.54-82.75c-1.28-1.11-2.59-2.18-3.91-3.24C478.67,245.47,480,246.54,481.25,247.66ZM469,238.52c-1.43-.91-2.88-1.8-4.35-2.65Q466.89,237.15,469,238.52Zm-15.85-8.35q-2.37-1-4.79-1.9C450,228.86,451.6,229.49,453.18,230.17Zm-52.68-7.7h0c-.8-2-1.65-3.89-2.53-5.8C398.85,218.58,399.69,220.51,400.5,222.47Zm-9.87-19.73q-1.61-2.7-3.31-5.33C388.46,199.16,389.57,200.94,390.63,202.74Zm-8.67-13a154.14,154.14,0,0,0-14.23-16.58A151,151,0,0,1,382,189.7Zm-18.71-20.93q-2.28-2.13-4.64-4.17C360.18,166,361.73,167.34,363.25,168.77Zm-7-6.18q-3.61-3-7.41-5.74Q352.6,159.6,356.21,162.59Zm-12.56-9.32q-2.61-1.72-5.28-3.37Q341.06,151.54,343.65,153.27Zm169,207.08c.11-.3.21-.61.3-.92-.09.31-.19.62-.29.92Z"/><path class="cls-3" d="M983.13,94.94c-.79,1-1.57,2-2.34,2.93a208.92,208.92,0,0,0-35.24,67.07A137.14,137.14,0,0,0,832.26,273.6c-.89,0-1.78-.06-2.67-.06a81.73,81.73,0,0,0-58.45,24.66,108.74,108.74,0,0,0-66.57-39A198.65,198.65,0,0,0,705.73,238a195.33,195.33,0,0,0-61-142,106.91,106.91,0,0,1,30.87-1.15,153.12,153.12,0,0,1,283.15,0,106.39,106.39,0,0,1,11.5-.62A105.31,105.31,0,0,1,983.13,94.94Z"/><path class="cls-4" d="M517.83,327.68A105.83,105.83,0,0,1,412,433.51c-15.33,0-54.6.11-90.76.21-25.47.07-49.39.12-62.32.12-31.27,0-127-.33-153.07-.33a105.83,105.83,0,1,1,11.5-211,153.12,153.12,0,0,1,283.15,0A105.89,105.89,0,0,1,517.83,327.68Z"/><path class="cls-5" d="M512.68,360.35A105.89,105.89,0,0,0,400.5,222.47a153.63,153.63,0,0,0-64.83-74.17A195.9,195.9,0,0,1,705.73,238a198.65,198.65,0,0,1-1.16,21.24,108.75,108.75,0,0,1,67,39.5q2.85,3.56,5.4,7.37a108.17,108.17,0,0,1,18.15,54.27Z"/><path class="cls-6" d="M1355.66,227.43V433.84s-502.14,0-525.1,0c-19.14,0-37.38-2.68-51.36-13.63a82.07,82.07,0,0,1-16.87-111.36,78.5,78.5,0,0,1,5.75-7.35q1.49-1.69,3.06-3.3a81.73,81.73,0,0,1,58.45-24.66c.89,0,1.78,0,2.67.06A137.14,137.14,0,0,1,945.55,164.94a208.92,208.92,0,0,1,35.24-67.07c.77-1,1.55-2,2.34-2.93a209.28,209.28,0,0,1,162.3-77.45c115.83-.25,209.93,93.45,210.18,209.28,0,.22,0,.44,0,.66Z"/><rect class="cls-7" x="105" y="360.35" width="1125" height="73.49"/></g></g></g></svg>