<svg xmlns="http://www.w3.org/2000/svg" viewBox="0 0 3354.96 795.08"><defs><style>.cls-1,.cls-2,.cls-3{fill:#fff;}.cls-1{fill-rule:evenodd;}.cls-3{opacity:0.5;}</style></defs><g id="Capa_2" data-name="Capa 2"><g id="Capa_2-2" data-name="Capa 2"><polygon class="cls-1" points="917.87 97.93 917.87 29.05 703.7 29.05 703.7 97.93 770.25 97.93 770.25 341.6 851.32 341.6 851.32 97.93 917.87 97.93"/><path class="cls-1" d="M937.55,341.6h75V229.14c0-16.87,6.09-28.12,12.65-34.21,8.43-7.5,19.22-8.9,27.18-8.9,7.5,0,16.87.94,23.9,8.9,8.44,9.37,9.37,25.31,9.37,40.77V341.6h75V208.52c0-20.15-.94-39.83-19.68-58.57-12.66-12.66-32.34-22.49-61.86-22.49-13.13,0-28.59,1.87-43.12,10.31-8.9,5.15-17.81,13.58-23.43,20.61V0h-75Z"/><path class="cls-1" d="M1424.48,242.73c0-23.43-3.75-60-33.28-88.1-24.84-23.43-56.24-28.58-80.61-28.58-41.23,0-68.42,13.59-85.76,30.46-18.27,17.8-31.4,45.92-31.4,81.06,0,39.83,17.34,65.6,30.94,79.19,25.77,25.78,59.05,31.87,86.7,31.87,45.45,0,69.82-14.06,85.29-29.05a94.23,94.23,0,0,0,25.31-43.12H1350a34.79,34.79,0,0,1-13.12,14.06c-9.37,5.16-22.49,5.63-24.37,5.63-16.87,0-26.24-5.63-30.93-10.31-8.9-8.9-13.12-23.9-13.12-35.15h156.06Zm-153.72-35.15A42.74,42.74,0,0,1,1282,185.09c8-8,17.81-11.24,30.46-11.24,7.5,0,21.09,1.4,30.93,11.24,5.62,5.62,10.31,14.53,12.19,22.49Z"/><polygon class="cls-1" points="2352.87 419.03 2352.87 315.71 2031.61 315.71 2031.61 419.03 2131.43 419.03 2131.43 784.53 2253.05 784.53 2253.05 419.03 2352.87 419.03"/><path class="cls-1" d="M2679.87,636.23c0-35.15-5.62-90-49.92-132.15-37.25-35.14-84.35-42.87-120.91-42.87-61.85,0-102.63,20.38-128.64,45.68-27.41,26.71-47.09,68.89-47.09,121.6,0,59.75,26,98.41,46.39,118.79,38.66,38.66,88.57,47.8,130.05,47.8,68.19,0,104.74-21.09,127.94-43.58s33-47.09,38-64.67H2568.09a52.29,52.29,0,0,1-19.68,21.09c-14.06,7.73-33.74,8.43-36.55,8.43-25.31,0-39.37-8.43-46.4-15.46-13.36-13.35-19.68-35.85-19.68-52.72h234.09ZM2449.3,583.51c2.1-14.06,9.13-25.31,16.86-33.74,12-11.95,26.72-16.87,45.7-16.87,11.24,0,31.63,2.11,46.4,16.87,8.43,8.43,15.46,21.79,18.27,33.74Z"/><polygon class="cls-1" points="2684.2 784.53 2833.23 784.53 2913.37 691.05 2993.51 784.53 3142.54 784.53 2985.08 613.73 3115.12 470.35 2969.61 470.35 2914.08 535.01 2859.95 470.35 2713.73 470.35 2840.97 613.73 2684.2 784.53"/><polygon class="cls-1" points="3354.95 562.42 3354.95 470.35 3290.99 470.35 3290.99 367.02 3178.51 367.02 3178.51 470.35 3142.66 470.35 3142.66 562.42 3178.51 562.42 3178.51 784.53 3290.99 784.53 3290.99 562.42 3354.95 562.42"/><path class="cls-1" d="M374.12,613.73H474c-4.22,26-17.58,42.88-28.83,52-21.79,18.28-46.39,21.8-67.49,21.8-35.84,0-63.26-11.95-85.76-35.85-21.79-23.2-37.26-58.34-37.26-101.22,0-36.55,13.36-80.12,40.78-107.54,21.79-21.79,51.32-32.33,80.14-32.33,23.2,0,45,6.32,65.37,23.19a114.86,114.86,0,0,1,33.75,47.1l116-47.8c-16.87-36.55-47.1-73.8-83.66-96.3-35.85-21.78-83-31.62-126.53-31.62-82.95,0-143.41,30.22-182.07,68.88-40.77,40.06-70.3,101.22-70.3,175.72,0,77.32,32.34,134.25,67.48,169.39,38,38.67,95.61,69.59,180,69.59,59.75,0,116-13.35,165.19-59,56.24-52,75.22-118.09,75.22-210.87H374.12Z"/><path class="cls-1" d="M984.42,511.81c-26-24.6-71-52-140.59-52-68.19,0-113.89,26.71-139.9,52-23.2,22.5-48.5,59-48.5,115.28,0,42.17,14.06,82.24,48.5,116,43.59,42.88,94.2,52,139.9,52,50.61,0,99.11-11.25,140.59-52,34.45-33.73,48.5-73.8,48.5-116C1032.92,570.85,1007.62,534.31,984.42,511.81ZM894.44,677c-13.36,13.35-31.64,21.09-49.91,21.09A71.92,71.92,0,0,1,793.91,677c-12.65-12.65-21.79-30.93-21.79-49.9,0-18.28,7.73-38,21.79-51.31,12.65-11.95,32.34-20.39,50.62-20.39,17.57,0,37.25,8.44,49.91,20.39,14,14.06,21.79,34.44,21.79,51.31A69.36,69.36,0,0,1,894.44,677Z"/><path class="cls-1" d="M1399.29,511.81c-26-24.6-71-52-140.6-52-68.18,0-113.88,26.71-139.89,52-23.19,22.5-48.5,59-48.5,115.28,0,42.17,14.06,82.24,48.5,116,43.58,42.88,94.2,52,139.89,52,50.62,0,99.12-11.25,140.6-52,34.45-33.73,48.5-73.8,48.5-116C1447.79,570.85,1422.49,534.31,1399.29,511.81Zm-90,165.18c-13.36,13.35-31.64,21.09-49.91,21.09A71.92,71.92,0,0,1,1208.78,677c-12.65-12.65-21.79-30.93-21.79-49.9,0-18.28,7.73-38,21.79-51.31,12.65-11.95,32.34-20.39,50.62-20.39,17.57,0,37.25,8.44,49.91,20.39,14.06,14.06,21.79,34.44,21.79,51.31A69.32,69.32,0,0,1,1309.31,677Z"/><path class="cls-1" d="M1741.05,272.13V500.57c-20.39-21.79-50.61-40.77-93.5-40.77-38.66,0-80.13,12.65-111.07,42.17-28.82,27.42-51.31,71-51.31,124.41,0,49.91,19,94.19,50.61,125.12,29.53,28.82,65.38,43.58,110.37,43.58,21.79,0,63.26-4.22,94.9-45v34.44h112.48V272.13Zm-20.39,408.38c-12,10.54-30.22,19-48.5,19-16.17,0-34.45-5.62-49.91-21.08-14.77-14.77-21.8-33-21.8-49.2,0-21.09,9.14-40.77,21.8-53.42,9.84-9.84,26-20.39,49.91-20.39,21.09,0,38.66,7.74,51.31,21.09,11.25,11.95,21.1,33,21.1,50.61C1744.57,646.06,1735.43,667.15,1720.66,680.51Z"/><path class="cls-2" d="M379.74,160.52c-53.35-50.73-176.1-8.23-274.16,94.91S-28.74,483.31,24.61,534a74.86,74.86,0,0,0,31.85,17.69C36.11,491.13,74.9,390.07,156.7,304S337.48,174.16,399,191.45A74.85,74.85,0,0,0,379.74,160.52Z"/><path class="cls-3" d="M399,191.45C337.48,174.16,238.5,218,156.7,304S36.11,491.13,56.46,551.73C118,569,217,525.16,298.78,439.13S419.37,252.06,399,191.45ZM253.3,395.88C187,465.61,111.65,501.58,85,476.22s5.45-102.43,71.75-172.16,141.65-105.69,168.32-80.34S319.6,326.16,253.3,395.88Z"/></g></g></svg>