<?xml version="1.0" encoding="UTF-8" standalone="no"?><!-- Generator: Gravit.io --><svg xmlns="http://www.w3.org/2000/svg" xmlns:xlink="http://www.w3.org/1999/xlink" style="isolation:isolate" viewBox="-56.819 -340.853 608.708 150" width="608.708pt" height="150pt"><path d=" M 92.165 -322.377 L 92.165 -335.372 L 51.764 -335.372 L 51.764 -322.377 L 64.317 -322.377 L 64.317 -276.406 L 79.611 -276.406 L 79.611 -322.377 L 92.165 -322.377 Z  M 95.877 -276.406 L 110.022 -276.406 L 110.022 -297.624 C 110.022 -300.806 111.171 -302.928 112.409 -304.077 C 114 -305.492 116.034 -305.757 117.537 -305.757 C 118.951 -305.757 120.719 -305.58 122.045 -304.077 C 123.636 -302.309 123.813 -299.303 123.813 -296.386 L 123.813 -276.406 L 137.958 -276.406 L 137.958 -301.513 C 137.958 -305.315 137.781 -309.028 134.245 -312.564 C 131.858 -314.951 128.145 -316.807 122.576 -316.807 C 120.1 -316.807 117.183 -316.454 114.442 -314.862 C 112.763 -313.89 111.083 -312.299 110.022 -310.973 L 110.022 -340.853 L 95.877 -340.853 L 95.877 -276.406 Z  M 187.73 -295.06 C 187.73 -299.48 187.022 -306.376 181.453 -311.68 C 176.767 -316.1 170.844 -317.072 166.247 -317.072 C 158.468 -317.072 153.34 -314.509 150.069 -311.326 C 146.622 -307.967 144.146 -302.663 144.146 -296.032 C 144.146 -288.518 147.417 -283.656 149.981 -281.092 C 154.843 -276.23 161.12 -275.08 166.336 -275.08 C 174.911 -275.08 179.508 -277.733 182.425 -280.561 C 185.343 -283.39 186.58 -286.485 187.199 -288.695 L 173.673 -288.695 C 173.054 -287.457 172.082 -286.573 171.198 -286.043 C 169.43 -285.07 166.955 -284.982 166.601 -284.982 C 163.418 -284.982 161.65 -286.043 160.766 -286.927 C 159.087 -288.606 158.291 -291.435 158.291 -293.557 L 187.73 -293.557 L 187.73 -295.06 Z  M 158.733 -301.69 C 158.998 -303.458 159.882 -304.873 160.855 -305.934 C 162.357 -307.436 164.214 -308.055 166.601 -308.055 C 168.015 -308.055 170.579 -307.79 172.436 -305.934 C 173.496 -304.873 174.38 -303.193 174.734 -301.69 L 158.733 -301.69 Z  M 362.858 -261.798 L 362.858 -281.291 L 302.257 -281.291 L 302.257 -261.798 L 321.087 -261.798 L 321.087 -192.842 L 344.028 -192.842 L 344.028 -261.798 L 362.858 -261.798 Z  M 424.543 -220.822 C 424.543 -227.453 423.482 -237.796 415.127 -245.752 C 408.099 -252.383 399.215 -253.841 392.319 -253.841 C 380.65 -253.841 372.959 -249.996 368.052 -245.222 C 362.881 -240.183 359.168 -232.226 359.168 -222.281 C 359.168 -211.009 364.074 -203.716 367.92 -199.87 C 375.213 -192.577 384.628 -190.853 392.452 -190.853 C 405.315 -190.853 412.21 -194.831 416.586 -199.075 C 420.962 -203.318 422.819 -207.959 423.747 -211.275 L 403.458 -211.275 C 402.53 -209.418 401.071 -208.092 399.745 -207.296 C 397.093 -205.838 393.38 -205.705 392.85 -205.705 C 388.076 -205.705 385.424 -207.296 384.098 -208.622 C 381.578 -211.142 380.385 -215.385 380.385 -218.568 L 424.543 -218.568 L 424.543 -220.822 Z  M 381.048 -230.768 C 381.445 -233.42 382.771 -235.542 384.23 -237.133 C 386.484 -239.387 389.269 -240.315 392.85 -240.315 C 394.971 -240.315 398.817 -239.918 401.602 -237.133 C 403.193 -235.542 404.519 -233.022 405.049 -230.768 L 381.048 -230.768 Z  M 425.36 -192.842 L 453.473 -192.842 L 468.59 -210.479 L 483.707 -192.842 L 511.82 -192.842 L 482.116 -225.066 L 506.648 -252.117 L 479.198 -252.117 L 468.723 -239.918 L 458.512 -252.117 L 430.93 -252.117 L 454.932 -225.066 L 425.36 -192.842 Z  M 551.889 -234.746 L 551.889 -252.117 L 539.822 -252.117 L 539.822 -271.611 L 518.605 -271.611 L 518.605 -252.117 L 511.842 -252.117 L 511.842 -234.746 L 518.605 -234.746 L 518.605 -192.842 L 539.822 -192.842 L 539.822 -234.746 L 551.889 -234.746 Z  M -10.407 -225.066 L 8.424 -225.066 C 7.628 -220.159 5.108 -216.977 2.987 -215.253 C -1.124 -211.805 -5.765 -211.142 -9.744 -211.142 C -16.506 -211.142 -21.678 -213.396 -25.922 -217.905 C -30.032 -222.281 -32.95 -228.911 -32.95 -237 C -32.95 -243.896 -30.43 -252.117 -25.259 -257.289 C -21.148 -261.4 -15.578 -263.389 -10.141 -263.389 C -5.765 -263.389 -1.655 -262.196 2.191 -259.013 C 4.445 -257.156 6.965 -254.239 8.556 -250.128 L 30.436 -259.146 C 27.254 -266.041 21.552 -273.069 14.656 -277.313 C 7.893 -281.423 -0.992 -283.28 -9.213 -283.28 C -24.861 -283.28 -36.265 -277.578 -43.558 -270.285 C -51.249 -262.726 -56.819 -251.189 -56.819 -237.133 C -56.819 -222.546 -50.719 -211.805 -44.089 -205.175 C -36.928 -197.881 -26.054 -192.047 -10.141 -192.047 C 1.13 -192.047 11.739 -194.566 21.021 -203.186 C 31.63 -212.999 35.21 -225.464 35.21 -242.968 L -10.407 -242.968 L -10.407 -225.066 Z  M 78.329 -236.072 C 81.644 -236.072 85.357 -234.481 87.744 -232.226 C 90.396 -229.574 91.855 -225.729 91.855 -222.546 C 91.855 -219.098 90.396 -215.651 87.744 -213.131 C 85.225 -210.612 81.777 -209.153 78.329 -209.153 C 74.749 -209.153 71.301 -210.612 68.782 -213.131 C 66.395 -215.518 64.671 -218.966 64.671 -222.546 C 64.671 -225.994 66.129 -229.707 68.782 -232.226 C 71.168 -234.481 74.881 -236.072 78.329 -236.072 Z  M 113.868 -222.546 C 113.868 -233.155 109.094 -240.05 104.718 -244.294 C 99.811 -248.935 91.325 -254.107 78.197 -254.107 C 65.334 -254.107 56.714 -249.067 51.808 -244.294 C 47.432 -240.05 42.658 -233.155 42.658 -222.546 C 42.658 -214.59 45.31 -207.031 51.808 -200.666 C 60.03 -192.577 69.577 -190.853 78.197 -190.853 C 87.744 -190.853 96.894 -192.975 104.718 -200.666 C 111.216 -207.031 113.868 -214.59 113.868 -222.546 Z  M 156.589 -236.072 C 159.904 -236.072 163.617 -234.481 166.004 -232.226 C 168.656 -229.574 170.115 -225.729 170.115 -222.546 C 170.115 -219.098 168.656 -215.651 166.004 -213.131 C 163.485 -210.612 160.037 -209.153 156.589 -209.153 C 153.009 -209.153 149.561 -210.612 147.041 -213.131 C 144.655 -215.518 142.931 -218.966 142.931 -222.546 C 142.931 -225.994 144.389 -229.707 147.041 -232.226 C 149.428 -234.481 153.141 -236.072 156.589 -236.072 Z  M 192.128 -222.546 C 192.128 -233.155 187.354 -240.05 182.978 -244.294 C 178.071 -248.935 169.585 -254.107 156.456 -254.107 C 143.594 -254.107 134.974 -249.067 130.068 -244.294 C 125.692 -240.05 120.918 -233.155 120.918 -222.546 C 120.918 -214.59 123.57 -207.031 130.068 -200.666 C 138.289 -192.577 147.837 -190.853 156.456 -190.853 C 166.004 -190.853 175.154 -192.975 182.978 -200.666 C 189.476 -207.031 192.128 -214.59 192.128 -222.546 Z  M 268.664 -289.512 L 247.447 -289.512 L 247.447 -246.415 C 243.601 -250.526 237.899 -254.107 229.81 -254.107 C 222.517 -254.107 214.693 -251.72 208.858 -246.15 C 203.421 -240.978 199.178 -232.757 199.178 -222.679 C 199.178 -213.264 202.758 -204.91 208.726 -199.075 C 214.295 -193.638 221.058 -190.853 229.545 -190.853 C 233.656 -190.853 241.479 -191.649 247.447 -199.34 L 247.447 -192.842 L 268.664 -192.842 L 268.664 -289.512 Z  M 234.451 -208.888 C 231.401 -208.888 227.953 -209.949 225.036 -212.866 C 222.251 -215.651 220.925 -219.098 220.925 -222.148 C 220.925 -226.127 222.649 -229.84 225.036 -232.226 C 226.893 -234.083 229.943 -236.072 234.451 -236.072 C 238.429 -236.072 241.745 -234.613 244.131 -232.094 C 246.253 -229.84 248.11 -225.861 248.11 -222.546 C 248.11 -218.966 246.386 -214.988 243.601 -212.468 C 241.347 -210.479 237.899 -208.888 234.451 -208.888 Z " fill-rule="evenodd" fill="rgb(255,255,255)"/></svg>