<svg xmlns="http://www.w3.org/2000/svg" viewBox="0 0 615.95 649.68"><defs><style>.cls-1,.cls-2{fill:#fff;}.cls-2{fill-rule:evenodd;}</style></defs><g id="Capa_2" data-name="Capa 2"><g id="Capa_2-2" data-name="Capa 2"><path class="cls-1" d="M379.74,21.41c-53.35-50.73-176.1-8.23-274.16,94.91s-134.32,227.88-81,278.61a74.86,74.86,0,0,0,31.85,17.69C36.11,352,74.9,251,156.7,164.93S337.48,35.05,399,52.34A74.85,74.85,0,0,0,379.74,21.41Z"/><path class="cls-2" d="M374.13,379.74v94.9H474q-.57,3.48-1.35,6.75c-5.24,22.21-17.23,37-27.47,45.27-21.79,18.28-46.39,21.79-67.49,21.79-35.84,0-63.26-12-85.76-35.85-21.3-22.68-36.57-56.78-37.23-98.37,0-.94,0-1.9,0-2.85,0-1.3,0-2.61,0-3.93.92-35.71,14.28-77.19,40.72-103.63,21.8-21.79,51.33-32.33,80.15-32.33,23.2,0,45,6.32,65.37,23.19,1.47,1.21,2.95,2.5,4.45,3.89,2.08,1.91,4.19,4,6.27,6.25a115.74,115.74,0,0,1,23,37l116-47.8c-.48-1-1-2.09-1.48-3.13a236.83,236.83,0,0,0-60.33-77.43A190,190,0,0,0,507,197.67a177.91,177.91,0,0,0-19.53-10.23c-32.5-14.66-71-21.4-107-21.4-83,0-143.41,30.23-182.07,68.89-36.63,36-64.18,89-69.4,153.45q-.9,10.94-.9,22.29t.89,21.9c5.4,66.26,34.85,115.78,66.59,147.52,38,38.66,95.61,69.59,180,69.59,59.75,0,116-13.35,165.19-59C597,538.61,616,472.53,616,379.74Z"/></g></g></svg>